<svg width="47" height="26" viewBox="0 0 47 26" fill="none" xmlns="http://www.w3.org/2000/svg">
<path opacity="0.999" fill-rule="evenodd" clip-rule="evenodd" d="M28.2523 0C28.2795 0 28.3066 0 28.3339 0C28.4296 0.0100785 28.5222 0.0372966 28.6115 0.0816539C28.6553 0.141801 28.7098 0.190794 28.7748 0.228631C28.89 0.334546 28.9444 0.465192 28.9381 0.62057C29.4109 2.91333 29.8873 5.20508 30.3671 7.49583C30.9169 8.43212 31.4666 9.36843 32.0165 10.3047C32.0434 10.3297 32.0761 10.3406 32.1145 10.3374C32.1894 10.3259 32.2629 10.3096 32.335 10.2884C32.3743 10.2654 32.4016 10.2327 32.4166 10.1904C33.606 9.13439 34.7981 8.08106 35.993 7.0304C36.0788 6.96439 36.174 6.91811 36.2788 6.89159C36.352 6.88841 36.4036 6.91834 36.434 6.98141C36.4495 6.9893 36.4658 6.99201 36.483 6.98957C36.4815 7.03924 36.506 7.06644 36.5565 7.07123C36.5556 7.13301 36.5801 7.182 36.6299 7.21821C36.6428 7.27288 36.6564 7.32733 36.6708 7.38151C36.985 9.12523 37.3062 10.8672 37.6343 12.6074C37.6683 12.6312 37.7063 12.6421 37.7486 12.64C37.8301 12.6238 37.9118 12.6075 37.9936 12.591C38.0341 12.6046 38.0749 12.6073 38.116 12.5992C38.4675 12.4181 38.8158 12.2385 39.1612 12.0603C39.2419 12.0175 39.3289 11.9876 39.4225 11.9705C39.4622 11.9147 39.5166 11.8929 39.5858 11.9051C39.6028 11.8396 39.6464 11.8124 39.7165 11.8235C39.7137 11.8019 39.7191 11.7828 39.7328 11.7663C39.8037 11.7741 39.8527 11.7469 39.8798 11.6847C39.9498 11.666 40.0096 11.6306 40.0594 11.5785C40.1138 11.5513 40.1683 11.5241 40.2227 11.4969C40.2657 11.51 40.2957 11.5372 40.3125 11.5785C40.4718 12.1678 40.6325 12.7557 40.7943 13.3422C40.7958 13.3796 40.8067 13.4122 40.827 13.4402C40.8908 13.6306 40.9398 13.8266 40.9739 14.0281C40.9725 14.0715 40.9834 14.1096 41.0066 14.1425C41.0107 14.2488 41.0352 14.3523 41.0801 14.4527C41.1929 14.8677 41.3126 15.2814 41.4394 15.6939C41.5071 15.8284 41.5725 15.9645 41.6353 16.1022C42.7329 15.7336 43.8299 15.3634 44.926 14.9917C44.9533 14.9917 44.9804 14.9917 45.0076 14.9917C45.0076 15.008 45.0076 15.0243 45.0076 15.0407C44.3673 16.1147 43.7276 17.1872 43.0888 18.2578C43.0706 18.283 43.0461 18.2937 43.0153 18.2905C43.0179 18.3182 43.0151 18.3455 43.0071 18.3721C42.8361 18.5812 42.6483 18.7744 42.4437 18.9519C42.1708 19.1758 41.8932 19.3936 41.6108 19.6051C41.5225 19.6601 41.4299 19.7064 41.3332 19.7439C41.256 19.766 41.1906 19.8042 41.1372 19.8582C41.0902 19.8845 41.0412 19.9062 40.9903 19.9236C40.9022 19.9512 40.826 19.9946 40.7616 20.0542C40.7146 20.0805 40.6656 20.1022 40.6147 20.1195C40.5374 20.1416 40.4721 20.1798 40.4187 20.2338C40.3717 20.2601 40.3227 20.2819 40.2717 20.2992C40.1837 20.3268 40.1074 20.3702 40.0431 20.4298C39.9995 20.4515 39.956 20.4734 39.9124 20.4951C39.8282 20.5128 39.7575 20.5508 39.7001 20.6094C38.3532 21.3184 37.0031 22.0234 35.6501 22.7243C35.4339 22.7795 35.216 22.8285 34.9969 22.8713C30.9852 23.0672 26.9734 23.2578 22.9611 23.4428C22.8087 23.4538 22.6562 23.4538 22.5038 23.4428C22.3915 23.4378 22.2827 23.4161 22.1772 23.3775C18.2021 22.018 14.2229 20.6681 10.2394 19.3275C10.0424 19.2672 9.85184 19.1911 9.66783 19.0988C9.54512 18.9922 9.43351 18.8861 9.33304 18.7804C7.92759 16.5638 6.52858 14.3428 5.13603 12.1174C5.08149 11.9649 5.02706 11.8124 4.97273 11.6602C4.87229 8.91687 4.7852 6.1733 4.71143 3.42946C4.7155 3.44782 4.72367 3.46415 4.73593 3.47846C4.75664 3.4633 4.77841 3.46057 4.80125 3.47029C5.66122 4.85286 6.50769 6.2437 7.34069 7.64281C7.39866 7.68499 7.45582 7.68228 7.51216 7.63464C7.57237 7.58222 7.61866 7.51961 7.65097 7.44684C7.66069 7.42399 7.65796 7.40222 7.64281 7.38151C8.22379 6.05087 8.80897 4.72262 9.39837 3.3968C9.42959 3.36158 9.45682 3.32346 9.48002 3.28249C9.51995 3.25837 9.55534 3.22843 9.58617 3.19267C9.63298 3.16887 9.68197 3.16344 9.73315 3.17634C9.83758 3.4204 9.93013 3.66809 10.0108 3.91939C10.0063 3.95009 10.0172 3.97186 10.0434 3.98471C10.1638 4.28012 10.2754 4.57953 10.3782 4.8829C10.4432 5.01007 10.5058 5.13801 10.566 5.26668C10.6233 5.26862 10.6723 5.28768 10.713 5.32384C10.7225 5.36056 10.7442 5.38777 10.7783 5.40549C10.7892 5.40549 10.7946 5.41093 10.7946 5.42182C10.8273 5.48714 10.8763 5.53614 10.9416 5.5688C10.9566 5.61108 10.9839 5.64374 11.0233 5.66678C11.0396 5.67222 11.0505 5.68311 11.0559 5.69944C11.1376 5.81376 11.2356 5.91174 11.3499 5.9934C11.6311 6.22286 11.9196 6.44333 12.2154 6.65479C12.3455 6.66807 12.4598 6.71434 12.5584 6.79361C12.5661 6.81657 12.5824 6.82746 12.6074 6.82627C12.6151 6.84923 12.6314 6.86012 12.6564 6.85893C12.694 6.87776 12.7321 6.89682 12.7707 6.91609C13.2116 7.04129 13.6525 7.16649 14.0935 7.29169C14.1526 7.30543 14.207 7.29454 14.2568 7.25903C14.2922 7.22364 14.3275 7.18827 14.3629 7.15288C14.842 5.694 15.321 4.23511 15.8 2.77623C15.8879 2.5924 16.0103 2.56517 16.1675 2.69458C16.2584 2.79478 16.3373 2.90365 16.4043 3.02119C16.991 4.3734 17.5871 5.72069 18.1925 7.06306C18.2804 7.0728 18.3674 7.06734 18.4538 7.04673C18.5072 6.98721 18.5725 6.94365 18.6498 6.91609C20.0624 6.25608 21.4722 5.59195 22.8794 4.92373C23.0865 4.61998 23.3315 4.58188 23.6143 4.80942C23.6538 4.82678 23.6947 4.84038 23.7368 4.85024C23.8727 4.79054 23.9978 4.71434 24.1124 4.62161C24.1464 4.55897 24.1846 4.49908 24.2267 4.44197C24.6928 3.91604 25.1528 3.38529 25.6067 2.84972C25.6222 2.84183 25.6385 2.83912 25.6557 2.84156C25.6495 2.80566 25.6604 2.77844 25.6883 2.7599C25.721 2.7599 25.7373 2.74357 25.7373 2.71091C25.7373 2.68914 25.7483 2.67825 25.77 2.67825C25.793 2.67052 25.8038 2.65419 25.8026 2.62926C25.8897 2.52851 25.9741 2.42509 26.0558 2.31897C26.0723 2.3053 26.0914 2.29986 26.1129 2.30264C26.115 2.25417 26.1395 2.22151 26.1864 2.20466C26.2073 2.15405 26.2372 2.11049 26.2762 2.07401C26.3143 2.06857 26.3362 2.04679 26.3416 2.00869C26.3416 1.99779 26.3469 1.99236 26.3579 1.99236C26.392 1.97464 26.4137 1.94743 26.4232 1.9107C26.4778 1.84793 26.5295 1.7826 26.5784 1.71473C26.5917 1.69313 26.6107 1.68225 26.6355 1.68207C26.6744 1.64324 26.707 1.59968 26.7335 1.55142C27.0315 1.18526 27.339 0.825978 27.6562 0.473593C27.761 0.303421 27.8998 0.16461 28.0726 0.0571577C28.1324 0.0311506 28.1923 0.0120981 28.2523 0ZM33.3801 17.4576C33.4095 17.4968 33.4476 17.5241 33.4944 17.5393C33.5021 17.5623 33.5184 17.5731 33.5434 17.5719C33.5728 17.6111 33.6109 17.6384 33.6577 17.6536C33.6654 17.6766 33.6818 17.6874 33.7067 17.6862C33.7361 17.7254 33.7742 17.7527 33.8211 17.7679C34.1121 17.9797 34.406 18.1892 34.7029 18.3966C34.8425 18.5273 34.8617 18.6715 34.7601 18.8294C34.2997 18.9867 33.8397 19.1581 33.3801 19.3438C30.0777 19.4149 26.7761 19.4991 23.4755 19.5969C23.4361 19.5844 23.3953 19.5762 23.353 19.5724C20.0999 18.4827 16.8501 17.383 13.6035 16.2736C12.7387 15.1183 11.8759 13.9616 11.0151 12.8033C11.0042 12.7924 11.0042 12.7816 11.0151 12.7707C11.0359 12.7933 11.0604 12.8096 11.0886 12.8197C11.1017 12.8423 11.1126 12.8396 11.1213 12.8115C11.1201 12.799 11.1147 12.7908 11.1049 12.787C11.1063 12.6945 11.1444 12.621 11.2193 12.5665C11.2742 12.5391 11.3286 12.5118 11.3826 12.4849C11.7959 12.4028 12.2096 12.3238 12.6237 12.2481C12.6647 12.2411 12.7028 12.2302 12.738 12.2154C13.7467 12.0262 14.7538 11.8275 15.7592 11.6194C15.8463 11.6085 15.9334 11.6085 16.0205 11.6194C16.9698 11.8288 17.9198 12.0384 18.8702 12.2481C18.8844 12.2442 18.8981 12.2388 18.911 12.2318C20.1764 12.5213 21.442 12.8098 22.708 13.0973C22.728 13.0949 22.747 13.0895 22.7651 13.081C24.8576 13.7412 26.9505 14.3999 29.0443 15.057C29.0585 15.0531 29.0722 15.0477 29.0851 15.0407C29.5914 15.2829 30.0976 15.5251 30.6039 15.7674C30.6248 15.7785 30.6439 15.7758 30.661 15.7592C31.1524 16.0416 31.645 16.322 32.139 16.6002C32.5508 16.8904 32.9645 17.1762 33.3801 17.4576Z" fill="#FEFEFE"/>
<path opacity="0.4" fill-rule="evenodd" clip-rule="evenodd" d="M28.6115 0.0816574C28.6762 0.119024 28.7306 0.168017 28.7748 0.228634C28.7098 0.190798 28.6553 0.141805 28.6115 0.0816574Z" fill="#E1CAB1"/>
<path opacity="0.435" fill-rule="evenodd" clip-rule="evenodd" d="M26.7335 1.55143C26.707 1.59969 26.6744 1.64324 26.6355 1.68208C26.6494 1.62459 26.682 1.58104 26.7335 1.55143Z" fill="#BCB294"/>
<path opacity="0.322" fill-rule="evenodd" clip-rule="evenodd" d="M26.4232 1.9107C26.4137 1.94743 26.392 1.97463 26.3579 1.99235C26.3673 1.95562 26.3891 1.92842 26.4232 1.9107Z" fill="#BAAF8B"/>
<path opacity="0.227" fill-rule="evenodd" clip-rule="evenodd" d="M26.3416 2.00869C26.3362 2.04679 26.3143 2.06857 26.2762 2.07401C26.2926 2.04679 26.3143 2.02502 26.3416 2.00869Z" fill="#A1956E"/>
<path opacity="0.263" fill-rule="evenodd" clip-rule="evenodd" d="M25.8026 2.62926C25.8038 2.65419 25.793 2.67053 25.77 2.67825C25.7688 2.65331 25.7796 2.63698 25.8026 2.62926Z" fill="#A49872"/>
<path opacity="0.137" fill-rule="evenodd" clip-rule="evenodd" d="M25.7373 2.71091C25.7373 2.74357 25.721 2.7599 25.6883 2.7599C25.6993 2.73813 25.7156 2.7218 25.7373 2.71091Z" fill="#857A53"/>
<path opacity="0.243" fill-rule="evenodd" clip-rule="evenodd" d="M10.0108 3.91939C10.03 3.93595 10.0408 3.95772 10.0434 3.98471C10.0172 3.97186 10.0064 3.95009 10.0108 3.91939Z" fill="#AB8C6F"/>
<path opacity="0.271" fill-rule="evenodd" clip-rule="evenodd" d="M10.713 5.32384C10.7471 5.34156 10.7688 5.36876 10.7783 5.40549C10.7442 5.38777 10.7225 5.36057 10.713 5.32384Z" fill="#AD8F73"/>
<path opacity="0.341" fill-rule="evenodd" clip-rule="evenodd" d="M10.7946 5.42182C10.8491 5.46538 10.8981 5.51437 10.9416 5.5688C10.8763 5.53614 10.8273 5.48714 10.7946 5.42182Z" fill="#C9AC90"/>
<path opacity="0.325" fill-rule="evenodd" clip-rule="evenodd" d="M10.9416 5.5688C10.9811 5.59184 11.0083 5.62451 11.0233 5.66679C10.9839 5.64374 10.9566 5.61108 10.9416 5.5688Z" fill="#B79A7F"/>
<path opacity="0.357" fill-rule="evenodd" clip-rule="evenodd" d="M11.0559 5.69944C11.1594 5.79199 11.2573 5.88997 11.3499 5.99339C11.2356 5.91174 11.1376 5.81376 11.0559 5.69944Z" fill="#CBAE93"/>
<path opacity="0.161" fill-rule="evenodd" clip-rule="evenodd" d="M12.5584 6.79361C12.5833 6.79241 12.5996 6.80331 12.6074 6.82627C12.5824 6.82746 12.5661 6.81657 12.5584 6.79361Z" fill="#957657"/>
<path opacity="0.165" fill-rule="evenodd" clip-rule="evenodd" d="M12.6074 6.82627C12.6323 6.82508 12.6486 6.83597 12.6564 6.85893C12.6314 6.86012 12.6151 6.84923 12.6074 6.82627Z" fill="#9A7B5D"/>
<path opacity="0.129" fill-rule="evenodd" clip-rule="evenodd" d="M44.6647 7.77345C44.6769 7.75593 44.6933 7.7532 44.7137 7.76528C44.6982 7.77317 44.6818 7.77588 44.6647 7.77345Z" fill="#955A05"/>
<path opacity="0.998" fill-rule="evenodd" clip-rule="evenodd" d="M44.6647 7.77345C44.6578 7.78524 44.6471 7.79341 44.632 7.79795C44.7382 7.85908 44.8416 7.91351 44.9423 7.96126C45.381 8.33193 45.8165 8.70481 46.2488 9.07992C46.2488 9.11258 46.2651 9.12891 46.2978 9.12891C46.3087 9.13435 46.3195 9.1398 46.3304 9.14524C46.3358 9.18334 46.3577 9.20512 46.3958 9.21056C46.4121 9.216 46.423 9.22689 46.4284 9.24322C46.4394 9.26499 46.4557 9.28132 46.4774 9.29222C46.521 9.30311 46.5481 9.33032 46.5591 9.37387C46.5756 9.39304 46.5975 9.40392 46.6244 9.40653C46.7978 9.52555 46.9229 9.68342 47 9.88012C47 9.97267 47 10.0652 47 10.1577C46.9495 10.3358 46.8679 10.4991 46.755 10.6477C46.735 10.6604 46.7132 10.6686 46.6897 10.6722C45.6228 11.652 44.5558 12.6319 43.4889 13.6117C43.3331 13.729 43.1588 13.7725 42.9663 13.7424C42.8962 13.7196 42.8391 13.6787 42.7948 13.6199C42.4663 12.4307 42.1506 11.2386 41.8476 10.0434C41.8367 9.96178 41.8367 9.88012 41.8476 9.79847C41.8826 9.70682 41.9262 9.61971 41.9783 9.53718C42.2117 9.29697 42.4648 9.08194 42.7377 8.89211C43.097 8.65259 43.4562 8.41308 43.8155 8.17356C43.922 8.0603 44.0417 7.96232 44.1748 7.8796C44.3352 7.8285 44.4985 7.79312 44.6647 7.77345Z" fill="#FEFEFE"/>
<path opacity="0.275" fill-rule="evenodd" clip-rule="evenodd" d="M46.2488 9.07991C46.2705 9.0908 46.2868 9.10713 46.2978 9.1289C46.2651 9.1289 46.2488 9.11257 46.2488 9.07991Z" fill="#BF9F7A"/>
<path opacity="0.192" fill-rule="evenodd" clip-rule="evenodd" d="M46.3304 9.14524C46.3577 9.16157 46.3794 9.18334 46.3958 9.21056C46.3577 9.20513 46.3358 9.18334 46.3304 9.14524Z" fill="#A7865F"/>
<path opacity="0.114" fill-rule="evenodd" clip-rule="evenodd" d="M46.4284 9.24323C46.4611 9.24323 46.4774 9.25956 46.4774 9.29222C46.4557 9.28132 46.4393 9.26499 46.4284 9.24323Z" fill="#93714B"/>
<path opacity="0.153" fill-rule="evenodd" clip-rule="evenodd" d="M46.5591 9.37387C46.5898 9.36944 46.6115 9.38034 46.6244 9.40653C46.5974 9.40392 46.5755 9.39304 46.5591 9.37387Z" fill="#937149"/>
<path opacity="0.337" fill-rule="evenodd" clip-rule="evenodd" d="M32.4166 10.1904C32.4016 10.2327 32.3743 10.2653 32.3349 10.2884C32.35 10.2461 32.3772 10.2134 32.4166 10.1904Z" fill="#C4BAA1"/>
<path opacity="0.502" fill-rule="evenodd" clip-rule="evenodd" d="M12.738 12.2154C12.7028 12.2302 12.6647 12.2411 12.6237 12.2481C12.6255 12.238 12.6309 12.2298 12.64 12.2236C12.6722 12.2155 12.7049 12.2128 12.738 12.2154Z" fill="#CABCA1"/>
<path opacity="0.133" fill-rule="evenodd" clip-rule="evenodd" d="M11.1049 12.787C11.1147 12.7908 11.1201 12.799 11.1213 12.8115C11.1126 12.8396 11.1017 12.8423 11.0886 12.8197C11.1023 12.8141 11.1077 12.8032 11.1049 12.787Z" fill="#B6935D"/>
<path opacity="0.275" fill-rule="evenodd" clip-rule="evenodd" d="M40.7943 13.3422C40.8199 13.3684 40.8309 13.4011 40.8269 13.4402C40.8067 13.4122 40.7958 13.3796 40.7943 13.3422Z" fill="#BB9D7B"/>
<path opacity="0.392" fill-rule="evenodd" clip-rule="evenodd" d="M40.9739 14.0281C40.9971 14.061 41.0081 14.0991 41.0066 14.1425C40.9834 14.1095 40.9725 14.0714 40.9739 14.0281Z" fill="#C9AF91"/>
<path opacity="0.999" fill-rule="evenodd" clip-rule="evenodd" d="M0 16.5431C0 16.4941 0 16.4451 0 16.3961C0.447759 15.7875 0.899578 15.1806 1.35545 14.5752C1.53254 14.4893 1.71762 14.4675 1.9107 14.5099C2.21207 14.647 2.51148 14.7885 2.80889 14.9345C3.17693 15.1647 3.54166 15.3988 3.90306 15.6367C3.99342 15.7216 4.0778 15.8114 4.15618 15.9062C4.25637 16.0825 4.2727 16.2676 4.20518 16.4614C3.81033 17.2293 3.42383 18.0024 3.04569 18.7804C2.9659 18.8883 2.86248 18.9646 2.73541 19.009C2.47986 18.8841 2.23217 18.7453 1.99236 18.5926C1.36412 18.0024 0.740823 17.4063 0.122481 16.8044C0.0676516 16.7221 0.0268246 16.6349 0 16.5431Z" fill="#FEFEFD"/>
<path opacity="0.329" fill-rule="evenodd" clip-rule="evenodd" d="M44.926 14.9917C44.9547 14.976 44.9874 14.9705 45.0239 14.9753C45.0284 15.0014 45.0228 15.0232 45.0076 15.0407C45.0076 15.0243 45.0076 15.008 45.0076 14.9917C44.9803 14.9917 44.9532 14.9917 44.926 14.9917Z" fill="#CDBEA3"/>
<path opacity="0.408" fill-rule="evenodd" clip-rule="evenodd" d="M33.3801 17.4576C33.427 17.4728 33.465 17.5001 33.4944 17.5393C33.4476 17.5241 33.4095 17.4968 33.3801 17.4576Z" fill="#D5C4A4"/>
<path opacity="0.408" fill-rule="evenodd" clip-rule="evenodd" d="M33.5434 17.5719C33.5903 17.5871 33.6283 17.6144 33.6577 17.6536C33.6109 17.6384 33.5728 17.6111 33.5434 17.5719Z" fill="#D5C4A4"/>
<path opacity="0.408" fill-rule="evenodd" clip-rule="evenodd" d="M33.7067 17.6862C33.7536 17.7014 33.7917 17.7287 33.821 17.7679C33.7742 17.7527 33.7361 17.7254 33.7067 17.6862Z" fill="#D5C3A4"/>
<path opacity="0.424" fill-rule="evenodd" clip-rule="evenodd" d="M41.3332 19.7439C41.2738 19.79 41.2084 19.8282 41.1372 19.8582C41.1906 19.8042 41.256 19.766 41.3332 19.7439Z" fill="#DCC3B0"/>
<path opacity="0.431" fill-rule="evenodd" clip-rule="evenodd" d="M40.9903 19.9236C40.9199 19.9752 40.8438 20.0186 40.7616 20.0542C40.826 19.9946 40.9022 19.9512 40.9903 19.9236Z" fill="#DFC5B3"/>
<path opacity="0.424" fill-rule="evenodd" clip-rule="evenodd" d="M40.6146 20.1195C40.5552 20.1656 40.4899 20.2038 40.4187 20.2338C40.4721 20.1798 40.5374 20.1416 40.6146 20.1195Z" fill="#DDC3B0"/>
<path opacity="0.439" fill-rule="evenodd" clip-rule="evenodd" d="M40.2717 20.2992C40.2013 20.3508 40.1252 20.3942 40.0431 20.4298C40.1074 20.3702 40.1837 20.3268 40.2717 20.2992Z" fill="#E2CCB9"/>
<path opacity="0.455" fill-rule="evenodd" clip-rule="evenodd" d="M39.9124 20.4951C39.8448 20.5371 39.7741 20.5752 39.7001 20.6094C39.7574 20.5508 39.8282 20.5128 39.9124 20.4951Z" fill="#E3D0BE"/>
<path opacity="0.998" fill-rule="evenodd" clip-rule="evenodd" d="M41.8721 21.8669C41.885 21.8931 41.9067 21.904 41.9374 21.8996C41.9966 21.9264 42.0509 21.959 42.1007 21.9976C42.1132 22.0263 42.135 22.0426 42.1661 22.0466C42.4553 22.295 42.752 22.5345 43.0561 22.7651C43.1525 22.8915 43.1688 23.0275 43.1051 23.1734C43.0646 23.298 42.9993 23.4069 42.9091 23.5C42.7274 23.72 42.5286 23.9241 42.313 24.1124C41.9926 24.3621 41.6768 24.6178 41.3659 24.88C41.2213 24.9489 41.0744 25.006 40.9249 25.0514C40.8106 25.0514 40.6963 25.0514 40.582 25.0514C40.5511 25.038 40.5185 25.0243 40.484 25.0106C40.3961 24.9283 40.3037 24.852 40.2064 24.782C39.9684 24.544 39.7426 24.2965 39.5287 24.0389C39.396 23.8586 39.3361 23.6573 39.349 23.4347C39.3724 23.2955 39.4267 23.1703 39.5123 23.0591C39.6673 22.8768 39.828 22.7 39.9941 22.5283C40.2846 22.2824 40.5839 22.0484 40.8923 21.8261C41.0455 21.758 41.1978 21.6954 41.3495 21.6383C41.537 21.6861 41.7113 21.7624 41.8721 21.8669Z" fill="#FEFEFD"/>
<path opacity="0.302" fill-rule="evenodd" clip-rule="evenodd" d="M41.8721 21.8669C41.8991 21.8695 41.9209 21.8805 41.9374 21.8996C41.9067 21.904 41.885 21.893 41.8721 21.8669Z" fill="#B1916E"/>
<path opacity="0.231" fill-rule="evenodd" clip-rule="evenodd" d="M42.1007 21.9976C42.1318 22.0015 42.1537 22.0178 42.1661 22.0466C42.135 22.0426 42.1131 22.0263 42.1007 21.9976Z" fill="#BC9C7A"/>
</svg>
